<?xml version="1.0" encoding="utf-8"?>
<!-- Generator: Adobe Illustrator 16.0.4, SVG Export Plug-In . SVG Version: 6.00 Build 0)  -->
<!DOCTYPE svg PUBLIC "-//W3C//DTD SVG 1.1//EN" "http://www.w3.org/Graphics/SVG/1.1/DTD/svg11.dtd">
<svg version="1.1" id="Layer_1" xmlns="http://www.w3.org/2000/svg" xmlns:xlink="http://www.w3.org/1999/xlink" x="0px" y="0px"
	 width="144px" height="144px" viewBox="0 0 144 144" enable-background="new 0 0 144 144" xml:space="preserve">
<g id="Outline_Color_copy_2">
	<path d="M126,4.5c7.443,0,13.5,6.057,13.5,13.5v108c0,7.443-6.057,13.5-13.5,13.5H18c-7.443,0-13.5-6.057-13.5-13.5V18
		c0-7.443,6.057-13.5,13.5-13.5H126 M126,0H18C8.1,0,0,8.1,0,18v108c0,9.9,8.1,18,18,18h108c9.9,0,18-8.1,18-18V18
		C144,8.1,135.9,0,126,0L126,0z"/>
</g>
<g>
	<path d="M22.5,34.875v74.25h99v-74.25H22.5z M72,74.115L33.439,41.062h77.125L72,74.115z M72,82.26l12.066-10.339l27.137,31.017
		H32.799l27.137-31.016L72,82.26z M115.312,98.242L88.762,67.897l26.551-22.762V98.242L115.312,98.242z M55.238,67.891
		l-26.55,30.345V45.135L55.238,67.891z"/>
</g>
</svg>
