<?xml version="1.0" encoding="utf-8"?>
<!-- Generator: Adobe Illustrator 16.0.4, SVG Export Plug-In . SVG Version: 6.00 Build 0)  -->
<!DOCTYPE svg PUBLIC "-//W3C//DTD SVG 1.1//EN" "http://www.w3.org/Graphics/SVG/1.1/DTD/svg11.dtd">
<svg version="1.1" id="Layer_1" xmlns="http://www.w3.org/2000/svg" xmlns:xlink="http://www.w3.org/1999/xlink" x="0px" y="0px"
	 width="139.5px" height="144px" viewBox="0 0 139.5 144" enable-background="new 0 0 139.5 144" xml:space="preserve">
<g id="Outline_Color_copy_2">
	<path d="M123.75,4.5c7.443,0,13.5,6.057,13.5,13.5v108c0,7.443-6.057,13.5-13.5,13.5h-108c-7.443,0-13.5-6.057-13.5-13.5V18
		c0-7.443,6.057-13.5,13.5-13.5H123.75 M123.75,0h-108c-9.9,0-18,8.1-18,18v108c0,9.9,8.1,18,18,18h108c9.9,0,18-8.1,18-18V18
		C141.75,8.1,133.65,0,123.75,0L123.75,0z"/>
	<path d="M58.938,113.674H76.16V71.996h11.486l1.521-14.36h-13.01l0.018-7.191c0-3.744,0.354-5.751,5.729-5.751h7.184V30.326h-11.49
		c-13.804,0-18.658,6.97-18.658,18.684v8.622h-8.604v14.364h8.604v41.678H58.938z"/>
</g>
</svg>
