<?xml version="1.0" encoding="utf-8"?>
<!-- Generator: Adobe Illustrator 16.0.4, SVG Export Plug-In . SVG Version: 6.00 Build 0)  -->
<!DOCTYPE svg PUBLIC "-//W3C//DTD SVG 1.1//EN" "http://www.w3.org/Graphics/SVG/1.1/DTD/svg11.dtd">
<svg version="1.1" id="Layer_1" xmlns="http://www.w3.org/2000/svg" xmlns:xlink="http://www.w3.org/1999/xlink" x="0px" y="0px"
	 width="144px" height="144px" viewBox="0 0 144 144" enable-background="new 0 0 144 144" xml:space="preserve">
<g id="Outline_Color_copy_2">
	<path fill="#FFFFFF" d="M126,4.5c7.443,0,13.5,6.057,13.5,13.5v108c0,7.443-6.057,13.5-13.5,13.5H18c-7.443,0-13.5-6.057-13.5-13.5
		V18c0-7.443,6.057-13.5,13.5-13.5H126 M126,0H18C8.1,0,0,8.1,0,18v108c0,9.9,8.1,18,18,18h108c9.9,0,18-8.1,18-18V18
		C144,8.1,135.9,0,126,0L126,0z"/>
	<path fill="#FFFFFF" d="M102.91,30.785H41.089c-5.817,0-10.305,4.486-10.305,10.305v61.821c0,5.817,4.485,10.305,10.305,10.305
		h61.821c5.818,0,10.305-4.485,10.305-10.305V41.089C113.215,35.271,108.729,30.785,102.91,30.785z M72.059,55.809
		c9.146,0,16.55,7.177,16.55,16.038c0,8.851-7.403,16.038-16.55,16.038c-9.135,0-16.545-7.187-16.545-16.038
		C55.518,62.986,62.928,55.809,72.059,55.809z M102.91,100.336c0,1.805-0.773,2.574-2.574,2.574H43.664
		c-1.801,0-2.574-0.77-2.574-2.574V64.273l6.422,1.395c-0.688,2.241-1.062,4.613-1.062,7.07c0,13.697,11.475,24.816,25.614,24.816
		c14.146,0,25.612-11.115,25.612-24.816c0-2.462-0.371-4.829-1.062-7.07l6.301-1.395v36.062L102.91,100.336L102.91,100.336z
		 M102.91,53.969c0,1.426-1.152,2.574-2.574,2.574H90.031c-1.426,0-2.574-1.152-2.574-2.574V43.664c0-1.427,1.152-2.574,2.574-2.574
		h10.305c1.428,0,2.574,1.152,2.574,2.574V53.969z"/>
</g>
</svg>
