<?xml version="1.0" ?><svg enable-background="new 0 0 32 32" version="1.1" viewBox="0 0 32 32" xml:space="preserve" xmlns="http://www.w3.org/2000/svg" xmlns:xlink="http://www.w3.org/1999/xlink"><g id="Outline_Color_copy_2"><path d="M28,1c1.654,0,3,1.346,3,3v24c0,1.654-1.346,3-3,3H4c-1.654,0-3-1.346-3-3V4c0-1.654,1.346-3,3-3H28 M28,0H4   C1.8,0,0,1.8,0,4v24c0,2.2,1.8,4,4,4h24c2.2,0,4-1.8,4-4V4C32,1.8,30.2,0,28,0L28,0z"/><path d="M16.131,25.707c-0.053,0-0.106-0.002-0.158-0.004h0c-0.033,0.003-0.068,0.004-0.103,0.004   c-1.225,0-2.012-0.556-2.772-1.094c-0.525-0.371-1.021-0.721-1.605-0.819c-0.285-0.047-0.569-0.071-0.843-0.071   c-0.494,0-0.883,0.076-1.168,0.132c-0.173,0.034-0.322,0.063-0.435,0.063c-0.118,0-0.247-0.026-0.302-0.216   c-0.048-0.165-0.083-0.325-0.117-0.479c-0.087-0.398-0.149-0.643-0.315-0.668c-1.943-0.3-2.5-0.71-2.624-1   c-0.018-0.042-0.028-0.083-0.03-0.124c-0.006-0.112,0.073-0.21,0.183-0.228c2.988-0.492,4.327-3.545,4.383-3.675   c0.001-0.004,0.003-0.007,0.005-0.011c0.183-0.371,0.219-0.692,0.107-0.956c-0.205-0.483-0.874-0.696-1.316-0.836   c-0.108-0.034-0.211-0.067-0.292-0.099c-0.883-0.349-0.957-0.708-0.922-0.89c0.059-0.311,0.475-0.528,0.812-0.528   c0.092,0,0.173,0.016,0.242,0.048c0.397,0.186,0.755,0.28,1.064,0.28c0.427,0,0.613-0.179,0.636-0.203   c-0.011-0.202-0.024-0.413-0.038-0.631c-0.089-1.412-0.199-3.168,0.248-4.169c1.339-3.003,4.179-3.236,5.018-3.236   c0.021,0,0.368-0.004,0.368-0.004l0.05,0c0.84,0,3.687,0.234,5.027,3.238c0.447,1.002,0.336,2.759,0.247,4.17l-0.004,0.061   c-0.012,0.197-0.024,0.388-0.034,0.57c0.021,0.022,0.193,0.187,0.58,0.202h0c0.294-0.011,0.632-0.105,1.003-0.279   c0.109-0.051,0.229-0.061,0.312-0.061c0.126,0,0.253,0.024,0.359,0.068l0.006,0.003c0.3,0.106,0.497,0.317,0.501,0.536   c0.004,0.207-0.154,0.518-0.929,0.824c-0.08,0.032-0.183,0.064-0.292,0.099c-0.443,0.141-1.112,0.353-1.316,0.836   c-0.112,0.264-0.076,0.585,0.107,0.956c0.002,0.004,0.003,0.007,0.005,0.011c0.056,0.13,1.394,3.182,4.383,3.675   c0.11,0.018,0.189,0.117,0.183,0.228c-0.002,0.042-0.013,0.084-0.031,0.125c-0.123,0.288-0.679,0.697-2.623,0.998   c-0.159,0.024-0.22,0.231-0.315,0.665c-0.034,0.158-0.069,0.313-0.117,0.476c-0.041,0.142-0.13,0.208-0.278,0.208h-0.024   c-0.103,0-0.249-0.018-0.435-0.055c-0.329-0.064-0.698-0.124-1.168-0.124c-0.274,0-0.558,0.024-0.843,0.071   c-0.583,0.097-1.078,0.447-1.603,0.817C18.143,25.151,17.356,25.707,16.131,25.707z"/></g></svg>