<?xml version="1.0" ?><svg enable-background="new 0 0 32 32" version="1.1" viewBox="0 0 32 32" xml:space="preserve" xmlns="http://www.w3.org/2000/svg" xmlns:xlink="http://www.w3.org/1999/xlink"><g id="Outline_Color_copy_2"><path d="M28,1c1.654,0,3,1.346,3,3v24c0,1.654-1.346,3-3,3H4c-1.654,0-3-1.346-3-3V4c0-1.654,1.346-3,3-3H28 M28,0H4   C1.8,0,0,1.8,0,4v24c0,2.2,1.8,4,4,4h24c2.2,0,4-1.8,4-4V4C32,1.8,30.2,0,28,0L28,0z"/><path d="M16.215,6.678v4.661h4.661v2.913h-4.661v4.661c0,1.083,0.103,1.952,0.218,2.259c0.115,0.306,0.327,0.551,0.64,0.736   c0.414,0.248,0.886,0.373,1.418,0.373c0.946,0,2.046-0.322,2.968-1.038v2.913c-0.777,0.486-1.667,0.788-2.315,0.939   c-0.647,0.15-1.346,0.226-2.099,0.226c-0.786,0-1.545-0.086-2.264-0.324c-0.657-0.216-1.023-0.454-1.487-0.852   c-0.463-0.4-0.688-0.801-0.867-1.251c-0.179-0.448-0.291-1.38-0.291-2.234v-6.409h-2.33v-2.913   c0.746-0.055,1.363-0.265,1.884-0.708c0.525-0.446,0.944-0.981,1.26-1.605c0.318-0.625,0.352-1.389,0.352-2.348H16.215z"/></g></svg>