<?xml version="1.0" ?><svg enable-background="new 0 0 32 32" version="1.1" viewBox="0 0 32 32" xml:space="preserve" xmlns="http://www.w3.org/2000/svg" xmlns:xlink="http://www.w3.org/1999/xlink"><g id="Outline_Color_copy_2"><path d="M28,1c1.654,0,3,1.346,3,3v24c0,1.654-1.346,3-3,3H4c-1.654,0-3-1.346-3-3V4c0-1.654,1.346-3,3-3H28 M28,0H4   C1.8,0,0,1.8,0,4v24c0,2.2,1.8,4,4,4h24c2.2,0,4-1.8,4-4V4C32,1.8,30.2,0,28,0L28,0z"/><path d="M7.199,13.212c0,0,1.605-1.265,2.14-0.633c0.535,0.633,2.576,8.268,3.258,9.676c0.595,1.235,2.236,2.868,4.035,1.702   c1.798-1.166,7.78-6.272,8.85-12.302c1.07-6.028-7.197-4.766-8.072,0.487c2.189-1.314,3.357,0.533,2.237,2.626   c-1.118,2.09-2.14,3.453-2.674,3.453c-0.534,0-0.945-1.399-1.556-3.844c-0.632-2.527-0.629-7.08-3.257-6.564   C9.68,8.3,6.422,12.191,6.422,12.191L7.199,13.212z"/></g></svg>