<?xml version="1.0" ?><svg enable-background="new 0 0 32 32" version="1.1" viewBox="0 0 32 32" xml:space="preserve" xmlns="http://www.w3.org/2000/svg" xmlns:xlink="http://www.w3.org/1999/xlink"><g id="Outline_Color_copy_2"><path d="M28,1c1.654,0,3,1.346,3,3v24c0,1.654-1.346,3-3,3H4c-1.654,0-3-1.346-3-3V4c0-1.654,1.346-3,3-3H28 M28,0H4   C1.8,0,0,1.8,0,4v24c0,2.2,1.8,4,4,4h24c2.2,0,4-1.8,4-4V4C32,1.8,30.2,0,28,0L28,0z"/><path d="M21.693,19.41c-0.161,0-0.277,0.045-0.348,0.141c-0.07,0.09-0.104,0.246-0.104,0.461v0.519h0.894v-0.519   c0-0.216-0.036-0.371-0.107-0.461C21.961,19.455,21.847,19.41,21.693,19.41z"/><path d="M18.207,19.392c-0.073,0-0.144,0.015-0.214,0.049c-0.07,0.034-0.14,0.086-0.209,0.157v3.204   c0.082,0.082,0.162,0.145,0.24,0.181c0.078,0.037,0.158,0.056,0.244,0.056c0.124,0,0.214-0.036,0.272-0.11   c0.058-0.072,0.089-0.188,0.089-0.354v-2.656c0-0.173-0.036-0.306-0.107-0.395C18.448,19.436,18.342,19.392,18.207,19.392z"/><path d="M23.826,15.406c-0.831-0.83-7.83-0.841-7.83-0.84c0-0.001-6.998,0.01-7.831,0.839c-0.833,0.831-0.835,4.933-0.835,4.956   c0,0.031,0.002,4.126,0.835,4.957c0.833,0.829,7.831,0.847,7.831,0.847s6.999-0.018,7.83-0.846   c0.836-0.834,0.843-4.957,0.843-4.957C24.669,20.338,24.66,16.237,23.826,15.406z M12.669,17.823H11.49v5.958h-1.14v-5.958H9.172   V16.81h3.497V17.823z M16,23.78h-1.009v-0.565c-0.188,0.209-0.381,0.368-0.585,0.476c-0.202,0.111-0.397,0.163-0.587,0.163   c-0.235,0-0.408-0.075-0.529-0.229c-0.116-0.154-0.177-0.381-0.177-0.689v-4.3h1.01v3.945c0,0.122,0.021,0.21,0.062,0.265   c0.045,0.055,0.114,0.082,0.207,0.082c0.074,0,0.169-0.036,0.283-0.109c0.114-0.072,0.217-0.164,0.314-0.275v-3.907H16V23.78z    M19.67,22.718c0,0.364-0.079,0.642-0.238,0.837c-0.157,0.195-0.388,0.29-0.688,0.29c-0.199,0-0.374-0.036-0.528-0.111   c-0.155-0.075-0.301-0.189-0.432-0.348v0.395h-1.022V16.81h1.022v2.245c0.137-0.156,0.281-0.277,0.433-0.357   c0.155-0.082,0.309-0.122,0.466-0.122c0.321,0,0.565,0.11,0.733,0.327c0.17,0.22,0.254,0.541,0.254,0.962V22.718z M23.176,21.334   h-1.934v0.967c0,0.271,0.033,0.459,0.099,0.564c0.068,0.105,0.181,0.156,0.343,0.156c0.167,0,0.284-0.044,0.351-0.133   c0.066-0.089,0.101-0.283,0.101-0.587v-0.235h1.04v0.264c0,0.528-0.126,0.925-0.381,1.193c-0.252,0.266-0.631,0.398-1.134,0.398   c-0.452,0-0.81-0.14-1.07-0.424c-0.26-0.282-0.392-0.67-0.392-1.167v-2.309c0-0.445,0.144-0.81,0.43-1.09   c0.286-0.281,0.653-0.421,1.107-0.421c0.463,0,0.819,0.13,1.068,0.39c0.249,0.26,0.372,0.633,0.372,1.121V21.334z"/><path d="M21.689,13.514H20.55v-0.626c-0.207,0.23-0.426,0.407-0.655,0.527c-0.227,0.121-0.447,0.181-0.66,0.181   c-0.265,0-0.462-0.085-0.595-0.253c-0.133-0.169-0.2-0.421-0.2-0.76V7.848h1.137v4.344c0,0.134,0.026,0.231,0.074,0.291   c0.046,0.06,0.125,0.09,0.231,0.09c0.083,0,0.189-0.04,0.317-0.119c0.127-0.079,0.245-0.181,0.351-0.305v-4.3h1.139L21.689,13.514   L21.689,13.514z"/><path d="M17.067,8.117c-0.302-0.275-0.689-0.412-1.159-0.412c-0.516,0-0.929,0.13-1.235,0.39c-0.308,0.26-0.461,0.609-0.46,1.049   v2.936c0,0.481,0.15,0.864,0.447,1.149c0.3,0.284,0.699,0.426,1.196,0.426c0.518,0,0.923-0.138,1.22-0.414   c0.294-0.276,0.441-0.656,0.441-1.14V9.176C17.517,8.745,17.366,8.391,17.067,8.117z M16.357,12.188   c0,0.151-0.045,0.27-0.136,0.358c-0.092,0.086-0.213,0.129-0.367,0.129c-0.151,0-0.267-0.042-0.348-0.127   c-0.081-0.086-0.122-0.206-0.122-0.36V9.102c0-0.124,0.045-0.224,0.13-0.301c0.087-0.076,0.2-0.114,0.34-0.114   c0.149,0,0.271,0.038,0.364,0.114c0.093,0.076,0.14,0.177,0.14,0.301V12.188z"/><polygon points="11.111,5.835 9.82,5.835 11.346,10.471 11.346,13.514 12.628,13.514 12.628,10.327 14.119,5.835 12.816,5.835    12.024,8.904 11.944,8.904  "/></g></svg>